<svg width="90" height="76" viewBox="0 0 90 76" fill="none" xmlns="http://www.w3.org/2000/svg">
<path d="M90 11.9781V19.9634H75.7895V31.9415H66.3158V19.9634H52.1053V11.9781H66.3158V0H75.7895V11.9781H90ZM49.7368 39.9269C53.6589 39.9269 56.8421 37.2438 56.8421 33.9378C56.8421 30.6319 53.6589 27.9488 49.7368 27.9488C45.8147 27.9488 42.6316 30.6319 42.6316 33.9378C42.6316 37.2438 45.8147 39.9269 49.7368 39.9269ZM66.3158 52.8392L63.8858 50.5634C60.1247 47.0298 53.5595 47.0298 49.7889 50.5634L46.6863 53.478L23.6842 31.9415L9.47368 45.2491V19.9634H42.6316V11.9781H9.47368C4.23947 11.9781 0 15.5515 0 19.9634V67.8757C0 72.2876 4.23947 75.861 9.47368 75.861H66.3158C71.55 75.861 75.7895 72.2876 75.7895 67.8757V39.9269H66.3158V52.8392Z" fill="#E88D31"/>
</svg>
